<?xml version="1.0" ?><!DOCTYPE svg  PUBLIC '-//W3C//DTD SVG 1.1//EN'  'http://www.w3.org/Graphics/SVG/1.1/DTD/svg11.dtd'><svg enable-background="new 0 0 32 32" version="1.1" viewBox="0 0 32 32" xml:space="preserve" xmlns="http://www.w3.org/2000/svg" xmlns:xlink="http://www.w3.org/1999/xlink"><g id="Smart_Watch41"/><g id="Smart_Watch40"><g><path d="M27,13h-1V9c0-1.65-1.35-3-3-3h-1.18H10.18H9C7.35,6,6,7.35,6,9v14c0,1.65,1.35,3,3,3h1.18h11.64H23    c1.65,0,3-1.35,3-3v-4h1c0.5527,0,1-0.4473,1-1v-4C28,13.4473,27.5527,13,27,13z M14.5,20.5c0-0.83,0.67-1.5,1.5-1.5    s1.5,0.67,1.5,1.5c0,0.83-0.67,1.5-1.5,1.5S14.5,21.33,14.5,20.5z M17,15.82V17c0,0.55-0.45,1-1,1s-1-0.45-1-1v-2    c0-0.55,0.45-1,1-1s1-0.45,1-1s-0.45-1-1-1s-1,0.45-1,1s-0.45,1-1,1s-1-0.45-1-1c0-1.65,1.35-3,3-3s3,1.35,3,3    C19,14.3,18.16,15.41,17,15.82z" fill="#364F6B"/><path d="M19.38,4h2.04l-0.44-2.2C20.89,1.34,20.48,1,20,1h-8c-0.48,0-0.89,0.34-0.98,0.8L10.58,4h2.04H19.38z" fill="#3FC1C9"/><path d="M12.62,28h-2.04l0.44,2.2c0.09,0.46,0.5,0.8,0.98,0.8h8c0.48,0,0.89-0.34,0.98-0.8l0.44-2.2h-2.04H12.62z" fill="#3FC1C9"/></g></g><g id="Smart_Watch39"/><g id="Smart_Watch38"/><g id="Smart_Watch37"/><g id="Smart_Watch36"/><g id="Smart_Watch35"/><g id="Smart_Watch34"/><g id="Smart_Watch33"/><g id="Smart_Watch32"/><g id="Smart_Watch31"/><g id="Smart_Watch30"/><g id="Smart_Watch29"/><g id="Smart_Watch28"/><g id="Smart_Watch27"/><g id="Smart_Watch26"/><g id="Smart_Watch25"/><g id="Smart_Watch24"/><g id="Smart_Watch23"/><g id="Smart_Watch22"/><g id="Smart_Watch21"/><g id="Smart_Watch20"/><g id="Smart_Watch19"/><g id="Smart_Watch18"/><g id="Smart_Watch17"/><g id="Smart_Watch16"/><g id="Smart_Watch15"/><g id="Smart_Watch14"/><g id="Smart_Watch13"/><g id="Smart_Watch12"/><g id="Smart_Watch11"/><g id="Smart_Watch10"/><g id="Smart_Watch09"/><g id="Smart_Watch08"/><g id="Smart_Watch07"/><g id="Smart_Watch06"/><g id="Smart_Watch05"/><g id="Smart_Watch04"/><g id="Smart_Watch03"/><g id="Smart_Watch02"/></svg>